<svg width="80" height="80" viewBox="0 0 80 80" fill="none" xmlns="http://www.w3.org/2000/svg">
<path d="M0 0L36.8 36.8H41.6L45.44 45.44L80 80V0H0Z" fill="#868E96"/>
<path d="M40.96 34.88C36.16 32 38.08 28.8 38.08 28.8C39.04 26.56 38.72 25.28 38.72 25.28C38.4 23.04 39.68 24.64 39.68 24.64C40.96 26.24 40.32 28.16 40.32 28.16C39.36 31.36 41.92 32.96 43.2 33.28" fill="white"/>
<path d="M36.8 36.8C36.8 36.8 38.08 37.44 38.4 36.8L42.88 32.32C43.84 31.68 44.8 31.36 45.44 31.36C42.88 27.84 40.64 23.68 46.08 18.24C47.68 16.64 49.28 16 51.2 16C51.52 15.36 52.16 13.76 55.04 12.48C55.04 12.48 56.64 13.44 57.28 17.6C58.56 18.24 59.84 19.2 61.12 20.48C62.4 21.76 63.36 23.04 64 24.32C68.48 25.28 69.44 26.56 69.44 26.56C68.16 29.12 66.56 30.08 65.92 30.08C65.92 32 65.28 33.6 63.68 35.2C58.56 40.32 54.08 38.4 50.56 35.84C50.56 36.8 50.24 38.08 48.96 39.36L45.12 42.88C44.8 43.2 45.44 44.48 45.44 44.48L36.8 36.8Z" fill="white"/>
</svg>
